<svg xmlns="http://www.w3.org/2000/svg" viewBox="0 0 1920 1080"><defs><style>.cls-1{isolation:isolate;}.cls-2{fill:#e2dfd0;}.cls-10,.cls-21,.cls-3{fill:#867667;}.cls-21,.cls-26,.cls-3,.cls-9{opacity:0.3;}.cls-3,.cls-9{mix-blend-mode:multiply;}.cls-4{fill:#d4d5d8;}.cls-5{fill:#b2b2b2;}.cls-6{fill:#2a2b30;}.cls-7{fill:#3b3d40;}.cls-8{fill:#202021;}.cls-11{fill:#d3d4d7;}.cls-12{fill:#ececec;}.cls-13{opacity:0.25;mix-blend-mode:overlay;}.cls-14{fill:#fff;}.cls-15{fill:#efe7c5;}.cls-16{fill:#f4eed2;}.cls-17{fill:#bed1d6;}.cls-18{fill:#fffae9;}.cls-19{fill:#472f23;}.cls-20{fill:#2e2623;}.cls-22{fill:#eaeaea;}.cls-23{fill:#f4f4f4;}.cls-24{fill:#17131b;}.cls-25{fill:#b3b1ae;}.cls-27{fill:#4e56a4;}.cls-28{fill:#ed9596;}.cls-29{fill:#9a9a9a;}.cls-30{fill:#f5c54e;}.cls-31{fill:#f8ce71;}.cls-32{fill:#371c11;}.cls-33{fill:#fdd6b6;}.cls-34{fill:#f9cb43;}.cls-35{fill:#eab52f;}.cls-36{fill:#38332a;}.cls-37{fill:#2c2a21;}</style></defs><g class="cls-1"><g id="Layer_1" data-name="Layer 1"><rect class="cls-2" x="-12.5" y="-8" width="1945" height="1096"/><path class="cls-3" d="M2081.05,201.81c29.48-20,333-259.81,333-259.81-26.74-34-115.93-147.57-207.53-264.16v-164l-237-285.22-.64,146.89L1648.57-353.31,1226.34-22.23a24.17,24.17,0,0,0-3.47,34L1678.09,570.1a24.18,24.18,0,0,0,34,3.46L2095.49,261a24.18,24.18,0,0,0,3.47-34Z"/><path class="cls-4" d="M1712.11,545.68a24.18,24.18,0,0,1-34-3.46L1222.87-16.1a24.18,24.18,0,0,1,3.47-34L1609.72-362.7a24.17,24.17,0,0,1,34,3.46L2099,199.08a24.2,24.2,0,0,1-3.46,34Z"/><path class="cls-5" d="M1843.58,375.17a4.84,4.84,0,0,1-6.81-.69L1417.06-140.29a4.84,4.84,0,0,1,.69-6.81l205.47-167.52a4.83,4.83,0,0,1,6.8.69l419.72,514.78a4.83,4.83,0,0,1-.69,6.8Z"/><path class="cls-5" d="M1549,345.21a4.83,4.83,0,0,1-6.81-.7L1389.16,156.79a4.84,4.84,0,0,1,.7-6.8L1524.34,40.35a4.83,4.83,0,0,1,6.8.69L1684.2,228.76a4.84,4.84,0,0,1-.69,6.8Z"/><path class="cls-6" d="M1736.24,142.66a6.14,6.14,0,0,1-8.63-.87l-15.68-19.24a6.13,6.13,0,0,1,.87-8.62L1732,98.25a6.13,6.13,0,0,1,8.62.87l15.68,19.24a6.13,6.13,0,0,1-.87,8.62Z"/><path class="cls-6" d="M1764.75,177.65a6.13,6.13,0,0,1-8.62-.88l-15.68-19.24a6.13,6.13,0,0,1,.87-8.62l19.24-15.68a6.13,6.13,0,0,1,8.63.88l15.68,19.23A6.14,6.14,0,0,1,1784,162Z"/><path class="cls-6" d="M1793.27,212.63a6.12,6.12,0,0,1-8.61-.88L1769,192.52a6.13,6.13,0,0,1,.88-8.63l19.23-15.68a6.13,6.13,0,0,1,8.63.88l15.68,19.23a6.13,6.13,0,0,1-.88,8.62Z"/><path class="cls-6" d="M1762.92,251.93a6.12,6.12,0,0,1-8.62-.88l-15.68-19.23a6.13,6.13,0,0,1,.88-8.62l19.23-15.69a6.14,6.14,0,0,1,8.63.88L1783,227.62a6.14,6.14,0,0,1-.88,8.63Z"/><path class="cls-6" d="M1821.8,247.61a6.13,6.13,0,0,1-8.62-.88L1797.5,227.5a6.14,6.14,0,0,1,.87-8.63l19.23-15.68a6.14,6.14,0,0,1,8.63.88l15.68,19.23a6.13,6.13,0,0,1-.88,8.63Z"/><path class="cls-6" d="M1737.37,217a6.14,6.14,0,0,1-8.63-.87l-23.26-28.53a6.15,6.15,0,0,1,.87-8.63l18.39-15a6.14,6.14,0,0,1,8.63.88l23.26,28.53a6.12,6.12,0,0,1-.88,8.62Z"/><path class="cls-6" d="M1622.14,2.74a6.14,6.14,0,0,1-8.62-.88l-15.67-19.23a6.13,6.13,0,0,1,.87-8.63L1618-41.68a6.13,6.13,0,0,1,8.63.88l15.67,19.23a6.12,6.12,0,0,1-.87,8.62Z"/><path class="cls-6" d="M1650.67,37.72a6.13,6.13,0,0,1-8.62-.88L1626.36,17.6a6.13,6.13,0,0,1,.88-8.62L1646.47-6.7a6.12,6.12,0,0,1,8.62.88l15.69,19.23a6.13,6.13,0,0,1-.88,8.63Z"/><path class="cls-6" d="M1679.19,72.7a6.13,6.13,0,0,1-8.62-.88l-15.69-19.23a6.13,6.13,0,0,1,.88-8.62L1675,28.28a6.13,6.13,0,0,1,8.62.88l15.68,19.23a6.14,6.14,0,0,1-.87,8.63Z"/><path class="cls-6" d="M1707.71,107.68a6.14,6.14,0,0,1-8.62-.87l-15.68-19.24a6.14,6.14,0,0,1,.87-8.63l19.24-15.68a6.13,6.13,0,0,1,8.62.88l15.68,19.24a6.12,6.12,0,0,1-.88,8.62Z"/><path class="cls-6" d="M1718.55,156.34a6.13,6.13,0,0,0,.87-8.62L1588.67-12.64a6.12,6.12,0,0,0-8.62-.88l-18.39,15a6.14,6.14,0,0,0-.87,8.63l130.74,160.36a6.14,6.14,0,0,0,8.63.88Z"/><path class="cls-6" d="M1755.71,97.67a6.13,6.13,0,0,1-8.63-.88L1731.4,77.56a6.12,6.12,0,0,1,.88-8.62l19.23-15.69a6.14,6.14,0,0,1,8.63.88l15.67,19.23a6.13,6.13,0,0,1-.87,8.63Z"/><path class="cls-6" d="M1784.22,132.65a6.11,6.11,0,0,1-8.61-.87l-15.69-19.24a6.12,6.12,0,0,1,.88-8.62L1780,88.23a6.15,6.15,0,0,1,8.63.88l15.68,19.24a6.14,6.14,0,0,1-.88,8.62Z"/><path class="cls-6" d="M1812.75,167.63a6.12,6.12,0,0,1-8.62-.88l-15.69-19.23a6.13,6.13,0,0,1,.88-8.62l19.23-15.68a6.14,6.14,0,0,1,8.63.87l15.68,19.23A6.14,6.14,0,0,1,1832,152Z"/><path class="cls-6" d="M1841.27,202.62a6.14,6.14,0,0,1-8.62-.88L1817,182.5a6.14,6.14,0,0,1,.88-8.62l19.24-15.68a6.11,6.11,0,0,1,8.61.87l15.69,19.24a6.12,6.12,0,0,1-.88,8.62Z"/><path class="cls-6" d="M1869.79,237.6a6.13,6.13,0,0,1-8.62-.88l-15.68-19.24a6.13,6.13,0,0,1,.87-8.62l19.24-15.68a6.13,6.13,0,0,1,8.62.88l15.68,19.23a6.13,6.13,0,0,1-.87,8.62Z"/><path class="cls-6" d="M1905.56,312a5.33,5.33,0,0,0,.77-7.49l-53.23-65.27a5.31,5.31,0,0,0-7.48-.76l-19.64,16a5.33,5.33,0,0,0-.77,7.49l53.23,65.27a5.33,5.33,0,0,0,7.49.77Z"/><path class="cls-6" d="M1941.06,283a5.32,5.32,0,0,0,.76-7.49L1903.07,228a5.32,5.32,0,0,0-7.49-.76l-19.64,16a5.34,5.34,0,0,0-.76,7.49l38.75,47.52a5.33,5.33,0,0,0,7.49.77Z"/><path class="cls-6" d="M1698.66,27.71a6.13,6.13,0,0,1-8.62-.88L1674.35,7.59a6.14,6.14,0,0,1,.88-8.62l19.24-15.68a6.12,6.12,0,0,1,8.62.88L1718.77,3.4a6.12,6.12,0,0,1-.88,8.62Z"/><path class="cls-6" d="M1727.19,62.69a6.14,6.14,0,0,1-8.63-.88l-15.68-19.23a6.14,6.14,0,0,1,.87-8.63L1723,18.27a6.13,6.13,0,0,1,8.62.88l15.68,19.23a6.13,6.13,0,0,1-.87,8.62Z"/><path class="cls-6" d="M1783.33,62.67a6.13,6.13,0,0,1-8.63-.88L1759,42.56a6.14,6.14,0,0,1,.87-8.63l19.24-15.68a6.13,6.13,0,0,1,8.62.88l15.69,19.23a6.15,6.15,0,0,1-.88,8.63Z"/><path class="cls-6" d="M1811.85,97.65a6.13,6.13,0,0,1-8.63-.88l-15.68-19.23a6.13,6.13,0,0,1,.88-8.62l19.23-15.68a6.14,6.14,0,0,1,8.63.87L1832,73.35a6.12,6.12,0,0,1-.88,8.62Z"/><path class="cls-6" d="M1840.37,132.63a6.13,6.13,0,0,1-8.62-.87l-15.68-19.23a6.13,6.13,0,0,1,.87-8.63l19.23-15.69a6.14,6.14,0,0,1,8.63.89l15.68,19.23a6.12,6.12,0,0,1-.88,8.62Z"/><path class="cls-6" d="M1868.89,167.62a6.14,6.14,0,0,1-8.62-.88l-15.69-19.23a6.15,6.15,0,0,1,.88-8.63l19.24-15.68a6.12,6.12,0,0,1,8.62.88L1889,143.31a6.13,6.13,0,0,1-.87,8.62Z"/><path class="cls-6" d="M1897.41,202.59a6.13,6.13,0,0,1-8.62-.87l-15.69-19.23a6.14,6.14,0,0,1,.89-8.63l19.23-15.68a6.12,6.12,0,0,1,8.62.88l15.68,19.23a6.12,6.12,0,0,1-.88,8.62Z"/><path class="cls-6" d="M1925.93,237.58a6.12,6.12,0,0,1-8.62-.88l-15.68-19.23a6.12,6.12,0,0,1,.88-8.62l19.23-15.69a6.13,6.13,0,0,1,8.62.88L1946,213.27a6.13,6.13,0,0,1-.87,8.63Z"/><path class="cls-6" d="M1754.8,27.69a6.13,6.13,0,0,1-8.62-.88L1730.5,7.58a6.12,6.12,0,0,1,.87-8.62l19.24-15.69a6.12,6.12,0,0,1,8.62.88l15.68,19.24A6.11,6.11,0,0,1,1774,12Z"/><path class="cls-6" d="M1887.58,119.1a6.14,6.14,0,0,1-8.63-.87L1863.27,99a6.12,6.12,0,0,1,.88-8.62l19.23-15.68a6.13,6.13,0,0,1,8.62.87l15.69,19.24a6.13,6.13,0,0,1-.88,8.62Z"/><path class="cls-6" d="M1859.05,84.13a6.14,6.14,0,0,1-8.62-.88L1834.75,64a6.13,6.13,0,0,1,.87-8.62l19.24-15.68a6.13,6.13,0,0,1,8.62.87l15.68,19.23a6.13,6.13,0,0,1-.87,8.63Z"/><path class="cls-6" d="M1830.53,49.14a6.12,6.12,0,0,1-8.62-.88L1806.23,29a6.13,6.13,0,0,1,.87-8.62l19.24-15.69a6.14,6.14,0,0,1,8.62.88l15.69,19.23a6.14,6.14,0,0,1-.89,8.63Z"/><path class="cls-6" d="M1802,14.16a6.14,6.14,0,0,1-8.63-.88L1777.71-5.95a6.12,6.12,0,0,1,.87-8.62l19.23-15.69a6.15,6.15,0,0,1,8.63.88l15.68,19.23a6.13,6.13,0,0,1-.88,8.63Z"/><path class="cls-6" d="M1944.61,189.07a6.12,6.12,0,0,1-8.61-.88L1920.31,169a6.14,6.14,0,0,1,.88-8.63l19.23-15.68a6.13,6.13,0,0,1,8.63.88l15.68,19.23a6.13,6.13,0,0,1-.88,8.62Z"/><path class="cls-6" d="M1916.1,154.09a6.15,6.15,0,0,1-8.63-.88L1891.79,134a6.14,6.14,0,0,1,.87-8.63l19.25-15.68a6.12,6.12,0,0,1,8.62.88l15.68,19.23a6.13,6.13,0,0,1-.88,8.62Z"/><path class="cls-6" d="M1840.21,306.17c2.62-2.14,3.44-6.08,1.3-8.71l-15.68-19.23c-2.14-2.62-5.74-2.09-8.36,0l-10.16,8.29L1830,314.46Z"/><path class="cls-6" d="M1807.31,286.57l-9.08,7.39c-2.61,2.14-5,6.45-2.82,9.08l15.68,19.23c2.14,2.62,7.26,1.72,9.88-.42l9.07-7.39Z"/><path class="cls-6" d="M1789.64,288.31a4.83,4.83,0,0,1-6.8-.69l-16.63-20.39a4.84,4.84,0,0,1,.69-6.81l7.72-6.29a4.83,4.83,0,0,1,6.8.69l16.63,20.4a4.84,4.84,0,0,1-.69,6.8Z"/><path class="cls-6" d="M1845.45,356.76a4.83,4.83,0,0,1-6.8-.69L1822,335.68a4.84,4.84,0,0,1,.69-6.81l7.72-6.29a4.85,4.85,0,0,1,6.81.7l16.62,20.39a4.85,4.85,0,0,1-.69,6.8Z"/><path class="cls-6" d="M1871.56,31.59a4.84,4.84,0,0,1-6.81-.69l-16.63-20.39a4.85,4.85,0,0,1,.7-6.81l7.71-6.29a4.83,4.83,0,0,1,6.81.7L1880,18.5a4.83,4.83,0,0,1-.69,6.8Z"/><path class="cls-6" d="M1902.56,69.62a4.83,4.83,0,0,1-6.8-.69l-16.62-20.39a4.85,4.85,0,0,1,.68-6.81l7.72-6.29a4.83,4.83,0,0,1,6.8.69L1911,56.53a4.84,4.84,0,0,1-.69,6.8Z"/><path class="cls-6" d="M1931.5,105.12a4.85,4.85,0,0,1-6.81-.7L1908.08,84a4.82,4.82,0,0,1,.68-6.8l7.72-6.29a4.84,4.84,0,0,1,6.81.69L1939.9,92a4.83,4.83,0,0,1-.68,6.81Z"/><path class="cls-4" d="M2135.14,208.59c-5.07,1.24-16.54-6.11-25.14-16.67L1654.68-366.53c-8.28-10.15-13-22.46-10.79-27.12L1736-605.41c3.55-7.59,20.48-16.7,36.52,2.24L2370.77,121c17.54,23.59,4.07,35.36-4.3,37.41Z"/><path class="cls-6" d="M2124.45,217.31c-5.08,1.24-16-6.56-24.59-17.12L1644.54-358.26c-8.28-10.15-13.51-22-11.34-26.67l102.31-219.13c3.55-7.59,15.12-3.15,25.94,9.94L2359.6,130.13c11.36,13.77,13.85,26.48,5.47,28.53Z"/><polygon class="cls-7" points="1761.73 -556.17 1660.57 -359.29 2103.68 184.17 2316.89 124.73 1761.73 -556.17"/><path class="cls-8" d="M2063.74,158.49c-2.75,2.25-9.52,1.25-13.46-3.58L1677.46-302.35c-3.94-4.83-3.55-11.66-.79-13.91h0c2.76-2.25,9.53-1.25,13.47,3.58L2063,144.58c4,4.83,3.56,11.66.79,13.91Z"/><g class="cls-9"><path class="cls-10" d="M1856.4,945.15,1734,740.37a29.23,29.23,0,0,0-40.09-10.1L1308.07,960.89A29.24,29.24,0,0,0,1298,1001l122.4,204.79a29.23,29.23,0,0,0,40.09,10.08l385.84-230.62A29.23,29.23,0,0,0,1856.4,945.15Z"/></g><path class="cls-11" d="M1463.92,1192.19a29.22,29.22,0,0,1-40.09-10.09l-122.4-204.78a29.23,29.23,0,0,1,10.1-40.09l385.84-230.62a29.24,29.24,0,0,1,40.09,10.1l122.39,204.78a29.21,29.21,0,0,1-10.09,40.08Z"/><rect class="cls-7" x="1389.52" y="824.81" width="387.44" height="241.07" transform="translate(-260.76 946.16) rotate(-30.87)"/><path class="cls-7" d="M1736.35,773.58a4.31,4.31,0,0,1-5.91-1.48l-17.66-29.56a4.32,4.32,0,0,1,1.48-5.91h0a4.31,4.31,0,0,1,5.91,1.49l17.67,29.56a4.3,4.3,0,0,1-1.49,5.9Z"/><path class="cls-7" d="M1827.21,923.09a5.54,5.54,0,1,1,1.91-7.6A5.55,5.55,0,0,1,1827.21,923.09Z"/><path class="cls-12" d="M1400.66,1079.29a21,21,0,1,1,7.23-28.73A21,21,0,0,1,1400.66,1079.29Z"/><path class="cls-11" d="M1383,1071.78a9.8,9.8,0,0,1-1.46-1.87L1378,1064a9.71,9.71,0,0,1,3.36-13.3l5.93-3.54a9.8,9.8,0,0,1,13.29,3.35l3.56,5.94a9.71,9.71,0,0,1-3.36,13.29l-5.93,3.54A9.65,9.65,0,0,1,1383,1071.78Zm12.74-19.79a4.9,4.9,0,0,0-6-.75l-5.93,3.54a4.88,4.88,0,0,0-2.25,3,5,5,0,0,0,.55,3.72l3.55,5.93a5,5,0,0,0,6.74,1.7l5.93-3.54a4.94,4.94,0,0,0,2.25-3,4.89,4.89,0,0,0-.55-3.72l-3.55-5.94A4.47,4.47,0,0,0,1395.77,1052Z"/><g class="cls-13"><path class="cls-14" d="M1728,809c-55.13-3-94.9-.27-150.1-1.12l-34.47,20.84c71-3.05,125-2.89,195.83,0Z"/></g><g class="cls-13"><path class="cls-14" d="M1748.61,844.43c-81.38-4.45-149.29.26-230.77-1l-42.94,26.22c104.73-4.51,186.76-.2,291.25,4.12Z"/></g><g class="cls-13"><path class="cls-14" d="M1749.8,986.21c-55.13-3-315-3.16-370.22-4l13.36,22.35c71-3,251.65-.69,322.44,2.23Z"/></g><g class="cls-13"><path class="cls-14" d="M1691.93,1020.81c-81.37-4.46-209.2-1.1-290.67-2.34l24,40.18c110-2.42,108.78-2.29,213.36-6Z"/></g><g class="cls-9"><path class="cls-10" d="M225.78,330.64c104.6-3.21,186.77-90.59,183.56-195.18S318.75-51.31,214.16-48.1A188.56,188.56,0,0,0,101-6.15L36.4,188.1C57.8,272.32,135.33,333.42,225.78,330.64Z"/></g><path class="cls-15" d="M404,120.52c2.54,104.62-80.21,191.46-184.82,194S27.69,234.3,25.16,129.69,105.38-61.77,210-64.3,401.44,15.92,404,120.52Z"/><path class="cls-16" d="M404,120.52s-.11,4.65-.31,13.37c-.1,2.17,0,4.62-.29,7.28l-1.08,8.7c-.44,3.12-.7,6.53-1.37,10.08s-1.67,7.3-2.57,11.26c-4,15.71-10.4,34.75-22.58,54A196.28,196.28,0,0,1,324,280.65a195.17,195.17,0,0,1-83.26,33.55,41.6,41.6,0,0,1-6,.71l-6.08.51-6.12.51-3.08.26c-1.2,0-2.1,0-3.16,0-8.21-.25-16.47.1-24.95-1.28-17-1.49-33.78-6.34-50.24-12.65L129,296.85c-4-1.84-7.82-4.28-11.76-6.41l-5.88-3.31c-1.88-1.24-3.71-2.57-5.57-3.85-3.66-2.64-7.51-5.07-11.06-7.91a205.45,205.45,0,0,1-37.86-40,206.1,206.1,0,0,1-25.25-50c-5.9-17.93-8.87-36.73-9.83-55.64l.4-14.11c.14-2.33,0-4.62.36-7l.92-7.1.93-7.09.47-3.54.8-3.45,3.23-13.77A206.2,206.2,0,0,1,51.68,22.58,206.66,206.66,0,0,1,87.55-19.2c3.41-3,7.14-5.62,10.68-8.44,1.79-1.36,3.55-2.78,5.37-4.1l5.71-3.6c3.84-2.32,7.49-4.93,11.44-7l11.89-6c16.12-7.09,32.7-12.75,49.52-15,8.31-1.78,16.74-1.85,25-2.5,1.07,0,2-.16,3.17-.17l3.06.11,6.09.21,6,.21a43.51,43.51,0,0,1,6,.42,194.92,194.92,0,0,1,84.85,29.5,196.28,196.28,0,0,1,54.36,52.89C383.84,36,391.15,54.67,395.9,70.17q1.65,5.88,3.11,11.12c.85,3.52,1.27,6.9,1.86,10s1.05,6,1.5,8.63.44,5.1.65,7.26Zm0,0s-.36-4.63-1-13.32c-.22-2.16-.23-4.61-.69-7.25s-1-5.51-1.56-8.62-1.05-6.47-1.92-10l-3.18-11.09c-4.86-15.43-12.27-34-25.44-52.51a188.66,188.66,0,0,0-54.57-52A193.14,193.14,0,0,0,231.4-62a43.64,43.64,0,0,0-6-.31l-6.05-.11-6.1-.11-3.06,0c-.84,0-2,.15-2.95.22-8.08.79-16.33,1-24.45,2.88C166.38-57,150.27-51.14,134.68-44L123.2-38c-3.82,2.05-7.32,4.67-11,7l-5.49,3.58c-1.75,1.32-3.43,2.73-5.16,4.09-3.38,2.8-7,5.39-10.22,8.37A203.17,203.17,0,0,0,56.83,25.83,199.64,199.64,0,0,0,35.1,75.44l-3,13.33-.75,3.33-.41,3.37-.84,6.72-.85,6.73a65.77,65.77,0,0,0-.31,6.92l-.34,13.77c.82,18.25,3.55,36.42,9.14,53.79a200,200,0,0,0,24.11,48.51A204.25,204.25,0,0,0,98.21,271c3.4,2.81,7.1,5.23,10.62,7.86,1.79,1.27,3.54,2.6,5.35,3.83l5.66,3.32c3.8,2.13,7.43,4.58,11.35,6.44L143,297.86c15.89,6.41,32.35,11.46,48.78,13.17,8.1,1.5,16.51,1.31,24.68,1.69,1,0,2.14.1,3,.08l3-.2,6-.4,6-.4a41.81,41.81,0,0,0,5.93-.6,192.83,192.83,0,0,0,82.81-31.78,188.49,188.49,0,0,0,52-54.61c12.27-19.08,18.77-38,22.87-53.68l2.64-11.22c.7-3.55,1-6.94,1.44-10.06l1.14-8.69c.33-2.65.22-5.1.34-7.28C403.84,125.17,404,120.52,404,120.52Z"/><g class="cls-9"><path class="cls-17" d="M373.17,121.27A158.65,158.65,0,1,1,210.73-33.49,158.66,158.66,0,0,1,373.17,121.27Z"/></g><path class="cls-18" d="M32.6,76.65l46,15.82C61.91,162.59,100.42,232.57,168.48,256c72.54,25,151.49-13.37,176.44-85.91S331,19.32,258.48-5.64C189.54-29.35,114.59,4.86,85.82,70.82L40,55.07c-6.51-2.25-14-.47-16.22,6l-.13.38C21.43,68,26.09,74.41,32.6,76.65Z"/><path class="cls-19" d="M143.48,30.61a118.18,118.18,0,1,1-26.54,165A118.17,118.17,0,0,1,143.48,30.61Z"/><path class="cls-20" d="M163.59,58.43a83.85,83.85,0,1,1-18.82,117.08A83.85,83.85,0,0,1,163.59,58.43Z"/><path class="cls-19" d="M151.72,103.52a13.1,13.1,0,1,1-9,16.22A13.1,13.1,0,0,1,151.72,103.52Z"/><path class="cls-19" d="M169.94,79.19a5.41,5.41,0,1,1-3.7,6.7A5.41,5.41,0,0,1,169.94,79.19Z"/><path class="cls-19" d="M186.15,101.4a4,4,0,1,1-2.74,5A4,4,0,0,1,186.15,101.4Z"/><path class="cls-20" d="M305.1,151.76a10,10,0,1,1-6.81,12.34A10,10,0,0,1,305.1,151.76Z"/><rect class="cls-21" x="137.62" y="726.36" width="448.62" height="536.91" transform="translate(-451.39 317.2) rotate(-30.21)"/><rect class="cls-22" x="115.85" y="719.11" width="448.62" height="536.91" transform="translate(-450.69 305.26) rotate(-30.21)"/><rect class="cls-5" x="43.22" y="799" width="391.8" height="3.63" transform="translate(-370.45 229.06) rotate(-30.21)"/><rect class="cls-5" x="61.47" y="830.35" width="391.8" height="3.63" transform="translate(-383.75 242.51) rotate(-30.21)"/><rect class="cls-5" x="79.73" y="861.7" width="391.8" height="3.63" transform="translate(-397.05 255.94) rotate(-30.21)"/><rect class="cls-5" x="97.98" y="893.05" width="391.8" height="3.63" transform="translate(-410.34 269.38) rotate(-30.21)"/><rect class="cls-5" x="116.23" y="924.41" width="391.8" height="3.63" transform="translate(-423.64 282.83) rotate(-30.21)"/><rect class="cls-5" x="132.66" y="952.62" width="391.8" height="3.63" transform="translate(-435.61 294.93) rotate(-30.21)"/><rect class="cls-5" x="150.91" y="983.97" width="391.8" height="3.63" transform="translate(-448.9 308.37) rotate(-30.21)"/><rect class="cls-5" x="169.17" y="1015.32" width="391.8" height="3.63" transform="translate(-462.19 321.81) rotate(-30.21)"/><rect class="cls-5" x="187.42" y="1046.68" width="391.8" height="3.63" transform="translate(-475.49 335.25) rotate(-30.21)"/><rect class="cls-5" x="205.67" y="1078.03" width="391.8" height="3.63" transform="translate(-488.79 348.69) rotate(-30.21)"/><rect class="cls-5" x="222.1" y="1106.24" width="391.8" height="3.63" transform="translate(-500.75 360.79) rotate(-30.21)"/><rect class="cls-5" x="240.35" y="1137.59" width="391.8" height="3.63" transform="translate(-514.05 374.23) rotate(-30.21)"/><rect class="cls-5" x="258.61" y="1168.95" width="391.8" height="3.63" transform="matrix(0.86, -0.5, 0.5, 0.86, -527.34, 387.67)"/><rect class="cls-5" x="171.39" y="841.13" width="3.63" height="478.87" transform="translate(-519.92 233.69) rotate(-30.19)"/><g class="cls-9"><rect class="cls-10" x="106.12" y="755.57" width="448.62" height="536.91" transform="translate(-438.33 271.15) rotate(-27.71)"/></g><rect class="cls-23" x="81.99" y="746.87" width="448.62" height="536.91" transform="translate(-437.06 258.94) rotate(-27.72)"/><rect class="cls-5" x="17.58" y="822.55" width="391.8" height="3.63" transform="translate(-359.34 194.26) rotate(-27.76)"/><rect class="cls-5" x="34.45" y="854.66" width="391.8" height="3.63" transform="translate(-371.73 205.24) rotate(-27.7)"/><rect class="cls-5" x="51.32" y="886.78" width="391.8" height="3.63" transform="translate(-384.5 216.55) rotate(-27.68)"/><rect class="cls-5" x="68.19" y="918.9" width="391.8" height="3.63" transform="translate(-397.65 228.22) rotate(-27.69)"/><polygon class="cls-5" points="108.38 1045.54 106.7 1042.32 453.55 860.11 455.23 863.32 108.38 1045.54"/><rect class="cls-5" x="100.25" y="979.91" width="391.8" height="3.63" transform="translate(-422.6 250.36) rotate(-27.72)"/><rect class="cls-5" x="117.12" y="1012.03" width="391.8" height="3.63" transform="translate(-435.3 261.6) rotate(-27.69)"/><rect class="cls-5" x="133.99" y="1044.14" width="391.8" height="3.63" transform="translate(-448.85 273.68) rotate(-27.73)"/><rect class="cls-5" x="150.87" y="1076.26" width="391.8" height="3.63" transform="translate(-461.93 285.3) rotate(-27.74)"/><rect class="cls-5" x="167.74" y="1108.38" width="391.8" height="3.63" transform="translate(-475.47 297.39) rotate(-27.78)"/><polygon class="cls-5" points="206.24 1231.81 204.55 1228.6 551.41 1046.38 553.09 1049.59 206.24 1231.81"/><rect class="cls-5" x="199.8" y="1169.4" width="391.8" height="3.63" transform="translate(-498.55 317.61) rotate(-27.66)"/><polygon class="cls-5" points="245.21 1313.78 22.5 889.86 25.72 888.17 248.42 1312.1 245.21 1313.78"/><rect class="cls-24" x="30.86" y="827.42" width="65.53" height="43.29" transform="translate(-378.36 121.32) rotate(-26.99)"/><path class="cls-25" d="M56.87,879.53l-.74-1.84c0-.09-.74-2.14-1.86-5.41-4.39-12.84-16.05-46.95-18.14-51.87-1.75-4.12-5.05-5.12-8.87-6.28-3.32-1-7.09-2.14-9.67-5.67-2.22-3-1.87-7.2-1.61-8.85.92-6,5-11.26,12.12-15.64a38.65,38.65,0,0,1,9.63-4.19,23.6,23.6,0,0,1,10-.87,18.4,18.4,0,0,1,5.52,1.77c1.48.77,5.06,3,6.2,6.53,1.32,4.16,0,7.88-1.13,11.16-1.32,3.76-2.46,7-.16,10.86,2.73,4.58,23.22,34.12,30.93,45.23l3.32,4.8,1,1.68ZM45,782.33a24.14,24.14,0,0,0-6.27.95,34.82,34.82,0,0,0-8.71,3.8c-6.15,3.77-9.66,8.18-10.41,13.08-.38,2.51,0,4.82,1,6.16,1.87,2.55,4.75,3.42,7.8,4.34,4.1,1.24,8.74,2.64,11.16,8.33,2.14,5,13.42,38,18.23,52.11l1.15,3.35,29.33-14.91c-.54-.77-1.25-1.79-2.09-3C77.63,844.34,57.82,815.78,55,811.09c-3.16-5.31-1.56-9.88-.14-13.92,1-3,2-5.85,1.09-8.87-.59-1.86-2.67-3.49-4.41-4.4A14.36,14.36,0,0,0,45,782.33Z"/><path class="cls-21" d="M147.85,921.79,125,916.51a14.67,14.67,0,0,0-17.59,11l-9.23,40-7.91,34.29a14.66,14.66,0,0,0,11,17.58l22.86,5.28a14.66,14.66,0,0,0,17.59-11l7.91-34.28,9.23-40A14.66,14.66,0,0,0,147.85,921.79Z"/><g class="cls-26"><path class="cls-10" d="M598.56,1087.58l-14.88-.94-4.61-.3v-.1l-3.44-.22v.09l-3.8-.25h0l-1.51-.1-6.46-.42h0l-2.91-.19-4.43-.29L267.1,1066.73l-.71,11.21-.53,8.4-.53,8.41,289.43,18.12,11.84.78h0l1.57.1,13.74.91,14.88.93c8.42.53,7.92-5.58,8.39-13.06l.05-.93C605.71,1094.12,607,1088.11,598.56,1087.58Z"/><polygon class="cls-10" points="224.59 1071.7 205.22 1074.09 224.03 1080.67 265.33 1094.75 267.1 1066.73 224.59 1071.7"/></g><path class="cls-21" d="M647.06,954.88,641.42,921c-1.95-11.69-11.19-21.42-20.35-19.9L529,916.44l.58,3.48a18.17,18.17,0,0,0-3,.42l-.13,0-.57-3.4L311.76,952.64l.57,3.4-3.68.61s1,25.19-53.2,34.94l.3,1.78-17,2.83L249,1012l9.62-1.6.29,1.78c54.43-8.35,61.65,15.81,61.65,15.81l3.68-.62.57,3.4L538.9,995l-.57-3.4.14,0a19.47,19.47,0,0,0,2.94-.76l.61,3.66,92.06-15.34C643.23,977.65,649,966.56,647.06,954.88Z"/><path class="cls-27" d="M83.38,994.93a14.66,14.66,0,0,0,11,17.58l22.86,5.28a14.67,14.67,0,0,0,17.59-11l7.91-34.28L91.29,960.63Z"/><path class="cls-23" d="M100.52,920.62l-9.23,40,51.44,11.88,9.23-40a14.66,14.66,0,0,0-11-17.58l-22.86-5.28A14.67,14.67,0,0,0,100.52,920.62Z"/><path class="cls-28" d="M598.35,1091.27c.48-7.48,1.74-13.49-6.68-14l-14.88-.94-1.76,28,14.88.93c8.42.53,7.91-5.59,8.39-13.06Z"/><polygon class="cls-29" points="549.64 1074.53 547.88 1102.55 575.03 1104.34 576.79 1076.32 549.64 1074.53"/><polygon class="cls-30" points="258.45 1084.42 547.88 1102.55 548.44 1094.15 258.98 1076.02 258.45 1084.42"/><polygon class="cls-30" points="549.64 1074.53 260.21 1056.41 259.51 1067.61 548.95 1086.02 549.64 1074.53"/><rect class="cls-31" x="399.76" y="935.87" width="8.42" height="290.02" transform="translate(-700.16 1416.13) rotate(-86.4)"/><polygon class="cls-32" points="198.34 1063.76 217.15 1070.35 217.71 1061.38 198.34 1063.76"/><polygon class="cls-33" points="260.21 1056.41 217.71 1061.38 217.15 1070.35 258.45 1084.42 260.21 1056.41"/><rect class="cls-5" x="540.34" y="1087.19" width="28.07" height="3.44" transform="translate(-568.45 1570.89) rotate(-86.25)"/><rect class="cls-5" x="548.3" y="1087.71" width="28.07" height="3.44" transform="translate(-560.8 1581.02) rotate(-86.34)"/><rect class="cls-5" x="555.54" y="1088.09" width="28.07" height="3.44" transform="translate(-554.45 1588.48) rotate(-86.33)"/><polygon class="cls-34" points="252.22 981.92 228.45 985.88 238.64 1001.63 255.04 998.89 252.22 981.92"/><path class="cls-35" d="M528.14,981.3c9.6-1.6,15.49-9.22,13.55-20.91L536,926.52c-1.95-11.7-8.89-19-19.77-16.51l-10.59,1.76,11.87,71.29Z"/><path class="cls-36" d="M308.79,944.58l-10.47,1.75s1,25.19-53.19,34.94l2,12,1.43,8.58c54.43-8.35,61.65,15.8,61.65,15.8l10.47-1.74Z"/><rect class="cls-37" x="306.46" y="923.94" width="217.08" height="79.15" transform="translate(-152.72 81.32) rotate(-9.46)"/><path class="cls-35" d="M623.76,968.85c9.15-1.52,14.92-12.61,13-24.3l-5.65-33.87c-2-11.69-11.19-21.43-20.34-19.9l-92.06,15.34,13,78.07Z"/><path class="cls-34" d="M631.27,911.78,514.16,931.29c-11.88,2-10.5,10.28-9.41,16.84h0c1.1,6.56,2.62,15.7,14.5,13.71l117.11-19.51Z"/></g></g></svg>